PathFileType	4	(X/Y/Z)	c:\Git\powerlifing_model_clean\simulations\HC835B\Session1\HC835B_CUT_0001\marker_experimental.trc
DataRate	CameraRate	NumFrames	NumMarkers	Units	OrigDataRate	OrigDataStartFrame	OrigNumFrames
240.000000	240.000000	4	38	mm	240.000000	28	75
Frame#	Time	RPSI			LPSI			RASI			LASI			RTH1			RTH2			RTH3			RTH4			RSK1			RSK2			RSK3			RSK4			RCAL1			RCAL2			RCAL3			RST			RPT			RTN			RFMB			RSMB			RVMB			RFMH			RSMH			RVMH			RPM			LTH1			LTH2			LTH3			LTH4			LSK1			LSK2			LSK3			LSK4			LCAL1			LCAL2			LCAL3			LFMH			LVMH			
		X1	Y1	Z1	X2	Y2	Z2	X3	Y3	Z3	X4	Y4	Z4	X5	Y5	Z5	X6	Y6	Z6	X7	Y7	Z7	X8	Y8	Z8	X9	Y9	Z9	X10	Y10	Z10	X11	Y11	Z11	X12	Y12	Z12	X13	Y13	Z13	X14	Y14	Z14	X15	Y15	Z15	X16	Y16	Z16	X17	Y17	Z17	X18	Y18	Z18	X19	Y19	Z19	X20	Y20	Z20	X21	Y21	Z21	X22	Y22	Z22	X23	Y23	Z23	X24	Y24	Z24	X25	Y25	Z25	X26	Y26	Z26	X27	Y27	Z27	X28	Y28	Z28	X29	Y29	Z29	X30	Y30	Z30	X31	Y31	Z31	X32	Y32	Z32	X33	Y33	Z33	X34	Y34	Z34	X35	Y35	Z35	X36	Y36	Z36	X37	Y37	Z37	X38	Y38	Z38	

29	0.1166666666666667	351.8138122558594	1034.485961914063	-338.9907226562501	261.8663330078126	1022.552490234375	-285.0761413574219	285.4866943359376	980.129577636719	-550.0282592773439	92.78708648681642	965.4285278320315	-419.5067749023439	445.031707763672	767.9904785156251	-592.4865112304689	412.1875305175782	766.7981567382814	-643.5185546875001	444.2080688476564	695.6671142578126	-636.3240356445314	404.2567749023439	689.4854736328126	-678.7843627929689	595.0104980468751	290.1341247558594	-636.3950805664064	575.1230468750001	266.5239868164063	-690.0038452148439	607.7878417968751	234.3678131103516	-649.8382568359376	579.8169555664064	207.9230041503907	-695.8354492187501	654.9989013671876	94.44870758056642	-574.0791015625001	628.3697509765626	53.2949905395508	-565.5806274414064	690.1212158203126	60.81412887573244	-585.9004516601564	586.7819824218751	52.36435317993165	-624.6595458984376	691.0233154296876	67.20668029785158	-650.4625854492189	576.1292724609376	66.57830810546876	-685.0328979492189	575.4716186523439	59.88885498046876	-720.2274780273439	614.5313720703126	88.38825988769533	-739.6898193359376	692.1893310546876	42.92023468017579	-693.0753784179689	566.5669555664064	44.70099639892579	-768.1302490234377	610.0370483398439	56.45736694335939	-801.6609497070315	683.2786865234376	34.27116394042969	-772.892028808594	581.7478637695314	33.40917205810548	-856.033386230469	29.17548561096192	676.6626586914064	-357.2308044433594	-5.666687011718751	685.2216186523439	-405.3197326660157	3.866172075271607	604.8170776367189	-398.6419067382814	-20.67792510986328	615.8374023437501	-453.7878723144532	191.3499298095703	467.3569641113282	-248.4358215332032	204.4463958740235	414.8486633300782	-246.8928833007813	233.1359100341797	444.1409606933595	-217.7658386230469	254.8480529785157	392.9145507812501	-228.3729095458985	383.4492492675782	488.2521057128907	-135.1407928466797	384.2185974121095	473.8675537109376	-89.44089508056642	428.9310607910157	475.2903442382814	-127.9481353759766	400.5612792968751	266.6515197753907	-199.4267120361329	343.2026977539063	283.5254211425782	-101.9076080322266	
30	0.1208333333333333	347.4522399902344	1031.942504882813	-350.9761657714844	256.9743347167969	1018.772033691406	-298.3588562011719	283.1621398925782	980.059509277344	-568.9521484375001	91.87491607666017	960.503356933594	-436.4479370117189	443.888153076172	768.359802246094	-606.2090454101564	412.138397216797	767.8010253906251	-657.9592285156251	442.9873962402345	696.1694946289064	-650.1905517578126	404.4406738281251	690.8822021484376	-694.0972900390626	592.7473754882814	291.0653686523438	-643.0984497070314	573.4010620117189	266.0525512695313	-696.2902221679689	605.7987060546876	235.0405731201172	-654.9537353515626	577.9277954101564	207.2520751953126	-700.3427734375001	652.8466796875001	95.67261505126955	-574.3319702148439	626.6568603515626	54.15805816650392	-565.7916870117189	688.4822998046876	62.32137298583986	-585.8334960937501	585.0307617187501	52.70160293579103	-625.3940429687501	689.1944580078126	68.21128082275392	-650.5803222656251	574.7460937500001	66.36766815185548	-685.4093017578126	574.6017456054689	59.78119277954103	-720.9152832031251	613.5524291992189	88.4374237060547	-740.1809692382814	691.1564331054689	43.8708610534668	-692.8241577148439	566.1236572265626	44.44100189208985	-768.5164184570315	609.7373657226564	56.32125473022462	-802.0335083007815	682.9808959960939	34.61416625976563	-772.7348632812502	581.9133300781251	33.18501663208009	-856.5308227539065	26.88240814208985	676.1671142578126	-381.0104370117188	-9.280233383178713	688.0048217773439	-428.1035156250001	-0.4605300128459932	607.2150268554689	-423.3355102539064	-24.72046661376954	620.2315673828126	-478.2742614746095	187.5470123291016	464.0144348144532	-278.5613708496094	201.1215820312501	411.9471130371095	-278.8691406250001	229.5583038330079	440.124725341797	-248.6746063232422	251.683822631836	389.3120422363282	-261.3344421386719	380.3909301757813	481.8355102539064	-165.023681640625	381.2921752929688	465.3699645996095	-120.0505905151367	426.0028076171876	468.8513793945314	-158.5048828125	398.2820129394532	263.2179565429688	-238.471664428711	341.3020935058594	275.8849792480469	-139.615234375	
31	0.125	342.4638671875001	1030.167724609375	-363.0909729003907	251.5826721191407	1015.581665039063	-311.5915222167969	281.1754455566407	980.3181152343752	-587.3237304687501	90.62339782714845	955.4841308593752	-453.2546386718751	442.7332763671876	768.9653930664065	-619.6817626953126	411.9609985351564	769.0240478515627	-672.0136718750001	441.6363830566407	696.8906860351564	-663.9513549804689	404.1280822753907	692.4512939453126	-708.8374023437501	590.5742797851564	292.7032775878907	-647.9899902343751	572.5842285156251	266.6296081542969	-701.2288208007814	604.0695800781251	236.4738006591797	-658.6840209960939	577.1784057617189	207.8125152587891	-704.2691040039064	650.8723754882814	96.86994171142581	-574.6834106445314	625.0789184570314	55.1619338989258	-566.0718383789064	686.7604370117189	63.77111053466798	-585.8629150390626	583.3905029296876	53.27761840820314	-626.2111206054689	687.7760620117189	69.39255523681642	-650.5762329101564	573.9063110351564	67.03330230712892	-686.2709350585939	573.8508911132814	59.46401214599611	-721.0610961914064	612.8356933593751	88.62298583984376	-740.8047485351564	690.1409301757814	44.69602966308594	-692.6351928710939	565.8380737304689	44.50291824340821	-769.2647705078127	609.6994628906251	56.23213195800783	-802.3579711914065	682.7576904296876	34.89996719360352	-772.5938110351565	582.1646118164064	32.95325469970704	-856.9773559570315	23.28362464904786	678.1387939453126	-403.5065307617189	-12.75086784362793	691.2693481445314	-450.3996887207032	-4.666629791259767	610.4171142578126	-448.0476684570314	-28.71591377258301	624.9074707031251	-502.557342529297	184.1991577148438	460.4692382812501	-308.7289428710938	197.9836120605469	408.4578247070314	-310.9790954589844	226.4799194335938	435.3343200683595	-280.1769104003907	248.6786499023438	385.4403381347657	-294.4675292968751	377.7211914062501	474.4883728027345	-194.9425048828126	378.8985595703126	455.9322204589845	-150.73779296875	423.3613586425782	461.4502258300782	-189.239990234375	395.9283752441407	259.3996582031251	-278.1759643554688	339.4577026367188	267.5140991210938	-178.3856201171875	
32	0.1291666666666667	339.0362548828126	1029.082397460938	-375.8434448242188	245.7568054199219	1012.919860839844	-324.7383117675782	279.9833679199219	981.9866943359377	-604.0070800781251	88.96433258056642	950.653259277344	-470.2390136718751	441.8147888183595	769.8708496093752	-632.9696655273439	411.9318237304689	770.215270996094	-685.8332519531251	440.754852294922	697.8237304687501	-677.3019409179689	403.7005615234376	693.6151123046876	-722.5999755859376	588.8256835937501	294.4503784179688	-651.6878051757814	572.5494384765626	267.6803283691407	-705.0781860351564	602.9021606445314	238.2485046386719	-661.2952270507814	577.4044799804689	208.9023590087891	-707.2708740234376	649.2355957031251	98.08691406250003	-575.0805053710939	623.7020263671876	56.25954437255861	-566.3756713867189	685.4351196289064	65.31803131103517	-585.8919067382814	582.2854614257814	53.79616928100587	-626.6343994140626	686.6593627929689	70.43907165527345	-650.6474609375001	573.0659790039064	67.48845672607423	-687.0823974609376	573.4024658203126	59.65465927124025	-721.6397094726564	612.1082153320314	88.90887451171876	-741.6950073242189	689.3303833007814	45.49159240722657	-692.5025024414064	565.6234130859376	44.17275619506837	-769.1584472656252	609.6227416992189	56.11887359619142	-802.671325683594	682.5346679687501	35.04721832275391	-772.5084228515627	582.3441162109376	32.79411697387696	-857.2940063476565	19.88108444213868	680.1686401367189	-425.863250732422	-16.04327583312989	695.0870971679689	-472.3088989257814	-8.667662620544435	613.9281616210939	-472.1384887695314	-32.44739532470704	630.3716430664064	-526.4707031250001	181.3866424560547	456.7965087890626	-338.9977416992188	195.0677185058594	404.7825317382814	-343.2307434082032	223.6764526367188	430.607147216797	-311.3771057128907	246.0055236816407	381.8764038085938	-327.7755432128907	375.3413391113282	466.3240966796876	-225.1113891601563	376.8708190917969	445.8365173339845	-181.8492889404297	421.0323486328126	453.0567932128907	-220.2788238525391	393.4934692382814	255.3661346435547	-318.5300598144532	337.6655883789063	258.4692687988282	-218.4263305664063	
